<?xml version="1.0" encoding="UTF-8" standalone="no"?>
<!DOCTYPE svg PUBLIC "-//W3C//DTD SVG 1.1//EN" "http://www.w3.org/Graphics/SVG/1.1/DTD/svg11.dtd">
<svg width="100%" height="100%" viewBox="0 0 512 512" version="1.1" xmlns="http://www.w3.org/2000/svg" xmlns:xlink="http://www.w3.org/1999/xlink" xml:space="preserve" xmlns:serif="http://www.serif.com/" style="fill-rule:evenodd;clip-rule:evenodd;stroke-linejoin:round;stroke-miterlimit:2;">
    <circle id="circle" cx="256" cy="256" r="256" style="fill:rgb(255,0,0);"/>
    <clipPath id="_clip1">
        <circle id="circle1" serif:id="circle" cx="256" cy="256" r="256"/>
    </clipPath>
    <g clip-path="url(#_clip1)">
        <g id="github_cat" transform="matrix(1,0,0,1,0,5)">
            <path d="M119.471,179.935C119.471,179.935 104.75,153.01 121.78,111.816C121.78,111.816 129.515,102.134 190.964,137.087C190.964,137.087 253.918,120.174 318.935,137.087C318.935,137.087 376.623,103.826 390.717,111.718C390.717,111.718 405.938,138.214 392.972,180.496C392.972,180.496 439.843,213.202 407.912,312.299C407.912,312.299 396.901,362.948 304.411,375.06C304.411,375.06 319.139,392.404 319.139,421.155L320.266,496.698C320.266,496.698 325.34,505.718 331.541,506L181.583,506C181.583,506 195.677,502.335 192.295,489.933L191.731,444.269C191.731,444.269 163.543,454.98 127.463,439.759C127.463,439.759 112.242,435.249 102.658,407.062C102.658,407.062 90.82,382.257 77.853,377.747C77.853,377.747 69.961,372.109 67.706,365.908C67.706,365.908 78.417,355.76 104.35,371.545C104.35,371.545 116.752,381.129 121.826,393.532C121.826,393.532 135.92,414.954 154.523,415.518C154.523,415.518 183.275,417.773 192.295,409.317C192.295,409.317 193.422,391.84 208.643,374.928C208.643,374.928 149.45,373.237 116.752,333.774C116.752,333.774 88.565,298.822 92.511,241.319C92.511,241.319 94.566,205.369 119.471,179.935Z"/>
        </g>
    </g>
</svg>
