<?xml version="1.0" encoding="UTF-8" standalone="no"?>
<!DOCTYPE svg PUBLIC "-//W3C//DTD SVG 1.1//EN" "http://www.w3.org/Graphics/SVG/1.1/DTD/svg11.dtd">
<svg width="100%" height="100%" viewBox="0 0 512 512" version="1.1" xmlns="http://www.w3.org/2000/svg" xmlns:xlink="http://www.w3.org/1999/xlink" xml:space="preserve" xmlns:serif="http://www.serif.com/" style="fill-rule:evenodd;clip-rule:evenodd;stroke-linejoin:round;stroke-miterlimit:2;">
    <rect x="0" y="0" width="512" height="512" style="fill:rgb(255,0,0);"/>
    <g id="twitter_logo" transform="matrix(0.780159,0,0,0.780183,53.6622,53.5339)">
        <path d="M255.227,190.875C255.227,190.875 153.204,194.187 68.867,96.302C68.867,96.302 29.179,164.836 95.025,215.799C95.025,215.799 73.377,216.701 56.69,205.426C56.69,205.426 51.278,275.76 127.497,295.175C127.497,295.175 118.477,300.61 88.26,297.904C88.26,297.904 103.594,355.181 172.597,360.142C172.597,360.142 115.244,408.67 38.343,397.99C38.343,397.99 178.748,500.29 340.302,381.903C340.302,381.903 434.558,313.839 435.616,168.382C435.616,168.382 469.286,141.743 480.561,121.899C480.561,121.899 438.166,137.684 431.852,134.527C431.852,134.527 462.521,110.171 467.933,85.819C467.933,85.819 422.832,111.078 410.204,107.019C410.204,107.019 358.156,53.101 289.449,98.025C289.449,98.025 245.668,125.171 255.227,190.875Z"/>
    </g>
</svg>
